<svg width="95" height="95" viewBox="0 0 95 95" fill="none" xmlns="http://www.w3.org/2000/svg">
<path d="M26.5414 42.3901C27.1156 41.8348 27.7567 41.3398 28.4203 40.8974C29.7075 40.0392 30.8779 39.583 31.6673 39.583C32.4567 39.583 33.6271 40.0392 34.9143 40.8974C35.9223 41.5693 36.6891 42.2894 36.7859 42.383C38.3352 43.8815 40.8401 43.9248 42.3829 42.382C43.9288 40.8361 43.9288 38.3299 42.3829 36.784C41.4534 35.8562 40.3964 35.0374 39.3057 34.3103C37.6242 33.1893 34.8363 31.6663 31.6673 31.6663C28.4984 31.6663 25.7104 33.1893 24.0289 34.3103C22.9394 35.0367 21.884 35.8549 20.9546 36.7811C19.4331 38.3066 19.4207 40.851 20.9517 42.382C22.4942 43.9245 24.9948 43.926 26.5414 42.3901Z" fill="#498553"/>
<path d="M35.1853 53.6011C34.1936 51.6793 31.8379 50.9068 29.898 51.8768C27.9426 52.8544 27.1501 55.2321 28.1277 57.1874C28.4542 57.838 28.8698 58.4482 29.3056 59.0292C30.0292 59.994 31.1215 61.2365 32.659 62.4665C35.7842 64.9667 40.6025 67.2922 47.5015 67.2922C54.4006 67.2922 59.2188 64.9667 62.3441 62.4665C63.8816 61.2365 64.9739 59.994 65.6975 59.0292C66.1349 58.446 66.5326 57.8362 66.8732 57.1917C67.8415 55.2619 67.0359 52.8422 65.1051 51.8768C63.1651 50.9068 60.8094 51.6793 59.8177 53.6011C59.7631 53.6998 59.0182 54.9889 57.3986 56.2846C55.5759 57.7428 52.4775 59.3755 47.5015 59.3755C42.5256 59.3755 39.4272 57.7428 37.6045 56.2846C35.9847 54.9888 35.2399 53.6997 35.1853 53.6011Z" fill="#498553"/>
<path fill-rule="evenodd" clip-rule="evenodd" d="M47.5006 91.0413C71.548 91.0413 91.0423 71.5471 91.0423 47.4997C91.0423 23.4523 71.548 3.95801 47.5006 3.95801C23.4533 3.95801 3.95898 23.4523 3.95898 47.4997C3.95898 71.5471 23.4533 91.0413 47.5006 91.0413ZM47.5006 83.0976C27.8404 83.0976 11.9027 67.1599 11.9027 47.4997C11.9027 27.8395 27.8404 11.9017 47.5006 11.9017C67.1609 11.9017 83.0986 27.8395 83.0986 47.4997C83.0986 67.1599 67.1609 83.0976 47.5006 83.0976Z" fill="#498553"/>
<path d="M58.2081 42.3901C58.7823 41.8348 59.4233 41.3398 60.087 40.8974C61.3742 40.0392 62.5446 39.583 63.334 39.583C64.1233 39.583 65.2938 40.0392 66.581 40.8974C67.5889 41.5693 68.3558 42.2894 68.4525 42.383C70.0019 43.8815 72.5068 43.9248 74.0496 42.382C75.5954 40.8361 75.5954 38.3299 74.0496 36.784C73.12 35.8562 72.063 35.0374 70.9724 34.3103C69.2908 33.1893 66.5029 31.6663 63.334 31.6663C60.165 31.6663 57.3771 33.1893 55.6956 34.3103C54.6061 35.0367 53.5507 35.8549 52.6213 36.7811C51.0998 38.3066 51.0874 40.851 52.6184 42.382C54.1609 43.9245 56.6615 43.926 58.2081 42.3901Z" fill="#498553"/>
</svg>
